<svg width="24" height="20" viewBox="0 0 24 20" fill="none" xmlns="http://www.w3.org/2000/svg">
<path fill-rule="evenodd" clip-rule="evenodd" d="M8.96272 2.04544C8.78228 2.01735 8.58575 2.01486 8.00188 2.01486H7.51369C6.31309 2.01486 5.47841 2.01589 4.83451 2.07954C4.20491 2.14178 3.8552 2.25685 3.59571 2.42393C3.28723 2.62254 3.02487 2.88491 2.82625 3.19338C2.65918 3.45288 2.5441 3.80259 2.48187 4.43218C2.41822 5.07609 2.41719 5.91076 2.41719 7.11136V11.9045C2.41719 13.5655 2.4191 14.7207 2.53619 15.5916C2.6498 16.4366 2.85678 16.8779 3.16978 17.1909C3.48279 17.504 3.92414 17.7109 4.76914 17.8245C5.64003 17.9416 6.79523 17.9435 8.45622 17.9435H15.5376C17.1986 17.9435 18.3538 17.9416 19.2247 17.8245C20.0697 17.7109 20.511 17.504 20.824 17.1909C21.1371 16.8779 21.344 16.4366 21.4576 15.5916C21.5747 14.7207 21.5766 13.5655 21.5766 11.9045V10.7704C21.5766 9.17995 21.5749 8.07392 21.4668 7.23679C21.3618 6.42342 21.1699 5.99398 20.8819 5.68668C20.844 5.64621 20.8048 5.60699 20.7643 5.56907C20.457 5.28104 20.0276 5.0892 19.2142 4.98418C18.377 4.87609 17.271 4.87433 15.6806 4.87433H14.859C14.8366 4.87433 14.8145 4.87433 14.7926 4.87433C14.3003 4.87443 13.9565 4.8745 13.6213 4.82232C12.9253 4.71396 12.2658 4.43895 11.699 4.02072C11.426 3.81929 11.1841 3.57495 10.8377 3.22511C10.8224 3.2096 10.8068 3.19388 10.791 3.17795C10.3801 2.76313 10.2401 2.62525 10.0931 2.51683C9.75982 2.27088 9.37201 2.10916 8.96272 2.04544ZM8.06825 0.214852C8.56056 0.214752 8.9044 0.214682 9.23961 0.26687C9.93561 0.375224 10.5951 0.650234 11.1619 1.06847C11.4349 1.2699 11.6768 1.51423 12.0232 1.86407C12.0385 1.87958 12.0541 1.8953 12.0699 1.91124C12.4808 2.32605 12.6208 2.46393 12.7678 2.57236C13.1011 2.8183 13.4889 2.98002 13.8982 3.04374C14.0786 3.07183 14.2751 3.07433 14.859 3.07433L15.7433 3.07433C17.2561 3.0743 18.4788 3.07428 19.4447 3.199C20.4476 3.32849 21.3017 3.60569 21.9952 4.25575C22.064 4.32024 22.1307 4.38694 22.1952 4.45574C22.8453 5.14931 23.1225 6.00335 23.252 7.00629C23.3767 7.97217 23.3767 9.19485 23.3766 10.7077V11.9701C23.3767 13.5499 23.3767 14.8266 23.2416 15.8314C23.1011 16.876 22.8 17.7606 22.0968 18.4637C21.3937 19.1669 20.5091 19.4681 19.4645 19.6085C18.4597 19.7436 17.183 19.7436 15.6032 19.7435H8.39065C6.81083 19.7436 5.53414 19.7436 4.52929 19.6085C3.4847 19.4681 2.60018 19.1669 1.89699 18.4637C1.1938 17.7606 0.892681 16.876 0.752239 15.8314C0.617142 14.8266 0.617163 13.5499 0.617188 11.9701L0.617189 7.06447C0.617175 5.92184 0.617164 4.99798 0.690597 4.25511C0.766447 3.4878 0.927542 2.81735 1.31281 2.21896C1.65056 1.69439 2.09672 1.24823 2.62129 0.910486C3.21968 0.525214 3.89013 0.364119 4.65744 0.28827C5.40031 0.214836 6.32417 0.214847 7.4668 0.214861L8.00188 0.214861C8.0243 0.214861 8.04642 0.214857 8.06825 0.214852Z" fill="#007AFF"/>
</svg>
