<svg width="26" height="18" viewBox="0 0 26 18" fill="none" xmlns="http://www.w3.org/2000/svg">
<path fill-rule="evenodd" clip-rule="evenodd" d="M3.0276 2.90541C3.0276 1.31158 4.31966 0.0195312 5.91348 0.0195312H22.6543C23.1513 0.0195312 23.5543 0.422475 23.5543 0.919531C23.5543 1.41659 23.1513 1.81953 22.6543 1.81953H5.91348C5.31377 1.81953 4.8276 2.3057 4.8276 2.90541V15.8046H14.4613C14.9584 15.8046 15.3613 16.2075 15.3613 16.7046C15.3613 17.2016 14.9584 17.6046 14.4613 17.6046H1.00156C0.504506 17.6046 0.101562 17.2016 0.101562 16.7046C0.101562 16.2075 0.504506 15.8046 1.00156 15.8046H3.0276V2.90541ZM19.9585 6.67647C19.3588 6.67647 18.8726 7.16264 18.8726 7.76235V14.7187C18.8726 15.3184 19.3588 15.8046 19.9585 15.8046H23.0092C23.6089 15.8046 24.0951 15.3184 24.0951 14.7187V7.76235C24.0951 7.16264 23.6089 6.67647 23.0092 6.67647H19.9585ZM17.0726 7.76235C17.0726 6.16853 18.3646 4.87647 19.9585 4.87647H23.0092C24.603 4.87647 25.8951 6.16852 25.8951 7.76235V14.7187C25.8951 16.3125 24.603 17.6046 23.0092 17.6046H19.9585C18.3646 17.6046 17.0726 16.3125 17.0726 14.7187V7.76235Z" fill="#A2ACB0"/>
</svg>
