<svg width="22" height="22" viewBox="0 0 22 22" fill="none" xmlns="http://www.w3.org/2000/svg">
<path fill-rule="evenodd" clip-rule="evenodd" d="M5.1353 0.0664068H5.21632C5.9592 0.0663921 6.57602 0.06638 7.07738 0.111222C7.59976 0.157943 8.084 0.258846 8.53238 0.514311C9.04799 0.808079 9.47763 1.23146 9.77696 1.74309C10.0381 2.1895 10.1413 2.67203 10.1889 3.19054C10.2345 3.68691 10.2344 4.29699 10.2344 5.02891V5.11163C10.2344 5.84355 10.2345 6.45363 10.1889 6.94999C10.1413 7.46851 10.0381 7.95104 9.77696 8.39745C9.47763 8.90907 9.04799 9.33246 8.53238 9.62623C8.084 9.88169 7.59976 9.98259 7.07738 10.0293C6.57602 10.0742 5.9592 10.0741 5.21633 10.0741H5.13529C4.39242 10.0741 3.77559 10.0742 3.27424 10.0293C2.75186 9.98259 2.26762 9.88169 1.81924 9.62623C1.30363 9.33246 0.873985 8.90907 0.57466 8.39745C0.313485 7.95104 0.210369 7.46851 0.162747 6.94999C0.117159 6.45362 0.117172 5.84353 0.117188 5.1116V5.02894C0.117172 4.29701 0.117159 3.68691 0.162747 3.19054C0.210369 2.67203 0.313485 2.1895 0.57466 1.74309C0.873985 1.23146 1.30363 0.808079 1.81924 0.514311C2.26762 0.258846 2.75186 0.157943 3.27424 0.111222C3.7756 0.06638 4.39242 0.0663921 5.1353 0.0664068ZM3.43459 1.90406C3.03487 1.93982 2.84093 2.00386 2.71031 2.07828C2.46729 2.21674 2.26697 2.41503 2.1283 2.65205C2.05518 2.77702 1.99115 2.96373 1.9552 3.35517C1.91807 3.75944 1.91719 4.28638 1.91719 5.07027C1.91719 5.85416 1.91807 6.3811 1.9552 6.78537C1.99115 7.17681 2.05518 7.36352 2.1283 7.48849C2.26697 7.72551 2.46729 7.9238 2.71031 8.06226C2.84093 8.13668 3.03487 8.20072 3.43459 8.23647C3.84624 8.27329 4.38212 8.27413 5.17581 8.27413C5.9695 8.27413 6.50538 8.27329 6.91703 8.23647C7.31675 8.20072 7.51069 8.13668 7.64131 8.06226C7.88433 7.9238 8.08465 7.72551 8.22332 7.48849C8.29644 7.36352 8.36047 7.17681 8.39642 6.78537C8.43355 6.3811 8.43443 5.85416 8.43443 5.07027C8.43443 4.28638 8.43355 3.75944 8.39642 3.35517C8.36047 2.96373 8.29644 2.77702 8.22332 2.65205C8.08465 2.41503 7.88433 2.21674 7.64131 2.07828C7.51069 2.00386 7.31675 1.93982 6.91703 1.90406C6.50538 1.86725 5.9695 1.86641 5.17581 1.86641C4.38212 1.86641 3.84624 1.86725 3.43459 1.90406ZM16.7794 0.0664068H16.8605C17.6033 0.0663921 18.2202 0.06638 18.7215 0.111222C19.2439 0.157943 19.7281 0.258846 20.1765 0.514311C20.6921 0.80808 21.1218 1.23147 21.4211 1.74309C21.6823 2.1895 21.7854 2.67203 21.833 3.19054C21.8786 3.68692 21.8786 4.29701 21.8786 5.02895V5.11159C21.8786 5.84352 21.8786 6.45362 21.833 6.94999C21.7854 7.46851 21.6823 7.95104 21.4211 8.39745C21.1218 8.90907 20.6921 9.33246 20.1765 9.62623C19.7281 9.88169 19.2439 9.98259 18.7215 10.0293C18.2202 10.0742 17.6033 10.0741 16.8605 10.0741H16.7794C16.0366 10.0741 15.4197 10.0742 14.9184 10.0293C14.396 9.98259 13.9118 9.88169 13.4634 9.62623C12.9478 9.33246 12.5181 8.90907 12.2188 8.39745C11.9576 7.95104 11.8545 7.46851 11.8069 6.94999C11.7613 6.45362 11.7613 5.84352 11.7613 5.11159V5.02895C11.7613 4.29701 11.7613 3.68692 11.8069 3.19054C11.8545 2.67203 11.9576 2.1895 12.2188 1.74309C12.5181 1.23147 12.9478 0.808079 13.4634 0.514311C13.9118 0.258846 14.396 0.157943 14.9184 0.111222C15.4197 0.06638 16.0366 0.0663921 16.7794 0.0664068ZM15.0787 1.90406C14.679 1.93982 14.4851 2.00386 14.3544 2.07828C14.1114 2.21674 13.9111 2.41503 13.7724 2.65205C13.6993 2.77702 13.6353 2.96373 13.5993 3.35517C13.5622 3.75944 13.5613 4.28638 13.5613 5.07027C13.5613 5.85416 13.5622 6.3811 13.5993 6.78537C13.6353 7.17681 13.6993 7.36352 13.7724 7.48849C13.9111 7.72551 14.1114 7.9238 14.3544 8.06226C14.4851 8.13668 14.679 8.20072 15.0787 8.23647C15.4904 8.27329 16.0263 8.27413 16.8199 8.27413C17.6136 8.27413 18.1495 8.27329 18.5612 8.23647C18.9609 8.20072 19.1548 8.13668 19.2854 8.06226C19.5285 7.9238 19.7288 7.72551 19.8675 7.48849C19.9406 7.36352 20.0046 7.17681 20.0406 6.78537C20.0777 6.3811 20.0786 5.85416 20.0786 5.07027C20.0786 4.28638 20.0777 3.75944 20.0406 3.35517C20.0046 2.96373 19.9406 2.77702 19.8675 2.65205C19.7288 2.41503 19.5285 2.21674 19.2854 2.07828C19.1548 2.00386 18.9609 1.93982 18.5612 1.90406C18.1495 1.86725 17.6136 1.86641 16.8199 1.86641C16.0263 1.86641 15.4904 1.86725 15.0787 1.90406ZM5.13533 11.5572H5.21629C5.95918 11.5572 6.57601 11.5572 7.07738 11.602C7.59976 11.6488 8.084 11.7497 8.53238 12.0051C9.04799 12.2989 9.47763 12.7223 9.77696 13.2339C10.0381 13.6803 10.1413 14.1628 10.1889 14.6814C10.2345 15.1777 10.2344 15.7878 10.2344 16.5197V16.6024C10.2344 17.3344 10.2345 17.9444 10.1889 18.4408C10.1413 18.9593 10.0381 19.4419 9.77696 19.8883C9.47763 20.3999 9.04799 20.8233 8.53238 21.117C8.084 21.3725 7.59976 21.4734 7.07738 21.5201C6.57603 21.565 5.95923 21.565 5.21637 21.5649H5.13524C4.39239 21.565 3.77558 21.565 3.27424 21.5201C2.75186 21.4734 2.26762 21.3725 1.81924 21.117C1.30363 20.8233 0.873986 20.3999 0.57466 19.8883C0.313485 19.4419 0.210369 18.9593 0.162747 18.4408C0.117159 17.9444 0.117172 17.3343 0.117188 16.6024V16.5198C0.117172 15.7878 0.117159 15.1777 0.162747 14.6814C0.210369 14.1628 0.313485 13.6803 0.57466 13.2339C0.873985 12.7223 1.30363 12.2989 1.81924 12.0051C2.26762 11.7497 2.75186 11.6488 3.27424 11.602C3.7756 11.5572 4.39244 11.5572 5.13533 11.5572ZM3.43459 13.3949C3.03487 13.4306 2.84093 13.4947 2.71031 13.5691C2.46729 13.7076 2.26697 13.9058 2.1283 14.1429C2.05518 14.2678 1.99115 14.4545 1.9552 14.846C1.91807 15.2502 1.91719 15.7772 1.91719 16.5611C1.91719 17.345 1.91807 17.8719 1.9552 18.2762C1.99115 18.6676 2.05518 18.8543 2.1283 18.9793C2.26697 19.2163 2.46729 19.4146 2.71031 19.5531C2.84093 19.6275 3.03487 19.6915 3.43459 19.7273C3.84624 19.7641 4.38212 19.7649 5.17581 19.7649C5.9695 19.7649 6.50538 19.7641 6.91703 19.7273C7.31675 19.6915 7.51069 19.6275 7.64131 19.5531C7.88433 19.4146 8.08465 19.2163 8.22332 18.9793C8.29644 18.8543 8.36047 18.6676 8.39642 18.2762C8.43355 17.8719 8.43443 17.345 8.43443 16.5611C8.43443 15.7772 8.43355 15.2502 8.39642 14.846C8.36047 14.4545 8.29644 14.2678 8.22332 14.1429C8.08465 13.9058 7.88433 13.7076 7.64131 13.5691C7.51069 13.4947 7.31675 13.4306 6.91703 13.3949C6.50538 13.3581 5.9695 13.3572 5.17581 13.3572C4.38212 13.3572 3.84624 13.3581 3.43459 13.3949Z" fill="#007AFF"/>
<path d="M14.1904 12.7782C14.8519 12.7782 15.3881 13.3074 15.3881 13.9601C15.3881 14.6129 14.8519 15.142 14.1904 15.142C13.5289 15.142 12.9927 14.6129 12.9927 13.9601C12.9927 13.3074 13.5289 12.7782 14.1904 12.7782Z" fill="#007AFF"/>
<path d="M16.985 15.536C17.6465 15.536 18.1827 16.0652 18.1827 16.7179C18.1827 17.3707 17.6465 17.8999 16.985 17.8999C16.3235 17.8999 15.7873 17.3707 15.7873 16.7179C15.7873 16.0652 16.3235 15.536 16.985 15.536Z" fill="#007AFF"/>
<path d="M19.7796 12.7782C20.4411 12.7782 20.9773 13.3074 20.9773 13.9601C20.9773 14.6129 20.4411 15.142 19.7796 15.142C19.1181 15.142 18.5819 14.6129 18.5819 13.9601C18.5819 13.3074 19.1181 12.7782 19.7796 12.7782Z" fill="#007AFF"/>
<path d="M14.1904 18.2938C14.8519 18.2938 15.3881 18.823 15.3881 19.4757C15.3881 20.1285 14.8519 20.6577 14.1904 20.6577C13.5289 20.6577 12.9927 20.1285 12.9927 19.4757C12.9927 18.823 13.5289 18.2938 14.1904 18.2938Z" fill="#007AFF"/>
<path d="M19.7796 18.2938C20.4411 18.2938 20.9773 18.823 20.9773 19.4757C20.9773 20.1285 20.4411 20.6577 19.7796 20.6577C19.1181 20.6577 18.5819 20.1285 18.5819 19.4757C18.5819 18.823 19.1181 18.2938 19.7796 18.2938Z" fill="#007AFF"/>
</svg>
